<?xml version="1.0" standalone="no"?>
<!DOCTYPE svg PUBLIC "-//W3C//DTD SVG 20010904//EN"
 "http://www.w3.org/TR/2001/REC-SVG-20010904/DTD/svg10.dtd">
<svg version="1.0" xmlns="http://www.w3.org/2000/svg"
 width="1105.000000pt" height="1090.000000pt" viewBox="0 0 1105.000000 1090.000000"
 preserveAspectRatio="xMidYMid meet">

<g transform="translate(0.000000,1090.000000) scale(0.100000,-0.100000)"
fill="#fff" stroke="none">
<path d="M327 10627 c-21 -13 -47 -38 -59 -57 -20 -34 -20 -44 -19 -574 l1
-540 24 -37 c49 -73 -21 -69 1094 -69 l1001 0 3 -272 c3 -303 5 -310 73 -357
78 -53 179 -30 226 52 24 41 24 47 27 310 l3 267 2782 -2 2782 -3 3 -3938 2
-3938 -37 -15 c-21 -8 -71 -31 -111 -50 -149 -72 -283 -244 -327 -419 -20 -78
-20 -233 0 -310 74 -281 312 -478 596 -493 316 -16 591 187 669 494 75 290
-73 604 -347 739 -37 18 -80 36 -96 40 l-27 7 2 3942 3 3941 995 2 c547 2
1005 5 1017 8 12 3 35 17 53 31 61 52 60 46 60 614 l0 517 -23 44 c-15 27 -38
52 -63 66 l-39 23 -5115 0 -5115 0 -38 -23z m10063 -627 l0 -330 -900 0 -900
0 0 85 0 85 109 0 c96 0 112 3 141 23 105 70 97 222 -16 277 -38 19 -62 20
-396 20 -397 0 -405 -1 -455 -67 -36 -47 -40 -135 -7 -179 44 -60 67 -69 187
-74 l112 -5 3 -83 3 -82 -3851 0 -3850 0 0 330 0 330 4910 0 4910 0 0 -330z
m-1817 -8874 c130 -63 207 -219 178 -358 -55 -263 -380 -355 -563 -160 -109
116 -116 307 -17 430 33 40 107 90 160 108 68 22 175 13 242 -20z"/>
<path d="M1271 9169 c-76 -30 -101 -73 -188 -319 -107 -305 -162 -535 -170
-716 -5 -111 -4 -126 15 -165 12 -24 38 -55 59 -69 l37 -25 673 -3 673 -3 0
-252 c0 -138 5 -268 10 -288 29 -105 155 -149 245 -87 70 48 74 65 74 396 l1
232 2630 0 c2196 0 2636 2 2663 14 73 30 116 108 102 182 -9 49 -67 108 -120
123 -29 8 -976 11 -3387 11 -2672 0 -3348 3 -3348 13 1 66 102 413 185 632 30
80 55 156 55 170 0 67 -54 137 -120 155 -42 12 -58 12 -89 -1z"/>
<path d="M9523 9169 c-40 -11 -101 -82 -109 -125 -8 -41 -4 -52 74 -214 110
-230 232 -553 232 -613 0 -14 -44 -16 -417 -19 -477 -3 -471 -3 -520 -85 -48
-82 -18 -180 70 -222 42 -20 57 -21 559 -21 l515 0 43 23 c30 16 52 37 68 68
22 41 24 52 19 154 -9 192 -88 443 -249 790 -90 194 -126 245 -186 263 -45 14
-55 14 -99 1z"/>
<path d="M1243 7682 c-50 -27 -66 -56 -132 -232 -120 -320 -190 -600 -198
-795 -5 -109 -3 -125 16 -162 11 -23 35 -52 53 -65 l33 -23 677 -3 677 -2 3
-273 c3 -301 6 -312 70 -359 47 -33 139 -33 187 1 66 47 72 78 71 368 l-1 258
2649 5 2649 5 35 27 c94 71 82 214 -22 269 -34 18 -144 19 -3403 19 l-3368 0
7 48 c18 123 104 411 194 647 32 85 41 119 37 149 -14 106 -139 169 -234 118z"/>
<path d="M9490 7678 c-39 -26 -80 -97 -80 -139 0 -14 25 -77 56 -140 120 -245
233 -533 250 -640 l6 -38 -430 -3 c-419 -3 -431 -4 -459 -24 -54 -40 -75 -83
-71 -142 5 -56 25 -91 72 -126 27 -21 38 -21 574 -21 l547 0 33 23 c52 38 72
88 72 182 0 199 -114 549 -300 919 -69 139 -94 163 -179 169 -46 3 -62 0 -91
-20z"/>
<path d="M1245 6213 c-16 -8 -40 -25 -52 -36 -36 -33 -159 -369 -222 -607 -50
-189 -64 -277 -65 -405 -1 -103 2 -125 19 -154 27 -46 64 -72 116 -82 24 -4
333 -8 686 -9 l642 0 3 -273 3 -274 28 -36 c36 -47 78 -69 132 -69 47 0 90 18
118 50 41 45 46 86 47 350 0 195 3 252 13 252 6 0 1180 0 2607 0 1427 1 2615
5 2639 9 156 31 190 225 51 298 l-43 23 -3369 0 -3369 0 6 38 c25 147 106 415
194 645 22 59 41 120 41 136 0 115 -127 196 -225 144z"/>
<path d="M9495 6210 c-57 -28 -85 -74 -85 -138 0 -43 9 -71 54 -160 103 -205
216 -493 250 -634 l6 -28 -412 0 c-381 0 -416 -2 -454 -19 -87 -39 -119 -142
-71 -224 49 -84 35 -82 584 -85 495 -3 571 1 618 35 109 79 82 348 -75 747
-75 191 -190 431 -226 472 -48 54 -122 68 -189 34z"/>
<path d="M1252 4739 c-54 -27 -70 -51 -122 -184 -135 -347 -220 -687 -220
-883 0 -86 12 -128 49 -170 46 -52 39 -52 750 -52 l660 0 3 -267 c3 -233 5
-272 21 -300 46 -85 157 -110 234 -53 66 48 68 61 68 357 l0 263 2625 0 c1810
0 2637 3 2663 11 75 20 127 107 112 185 -9 49 -67 108 -120 123 -29 8 -973 11
-3385 11 l-3345 0 3 43 c6 91 108 431 196 654 20 51 36 104 36 118 0 67 -54
137 -120 155 -49 14 -59 13 -108 -11z"/>
<path d="M9522 4747 c-48 -18 -88 -61 -102 -110 -14 -53 -13 -59 55 -202 128
-269 183 -407 234 -587 l19 -66 -421 -4 c-405 -3 -424 -4 -462 -24 -119 -62
-108 -241 17 -288 38 -15 103 -16 564 -14 l520 3 37 25 c55 37 77 90 77 184 0
202 -100 511 -296 912 -59 119 -79 145 -136 169 -43 17 -61 18 -106 2z"/>
<path d="M1242 3263 c-18 -9 -41 -27 -52 -40 -37 -47 -165 -407 -220 -619 -43
-166 -60 -277 -60 -400 0 -122 11 -152 73 -198 28 -21 36 -21 708 -24 l679 -2
0 -252 c0 -279 5 -313 57 -358 66 -58 150 -58 217 0 51 45 57 80 56 357 l-1
248 2649 5 2649 5 35 27 c94 72 81 219 -23 270 -33 17 -219 18 -3401 18 -1851
0 -3367 3 -3370 5 -17 18 96 419 183 645 56 148 63 200 32 252 -42 72 -135 99
-211 61z"/>
<path d="M9487 3258 c-42 -25 -77 -86 -77 -135 0 -18 26 -86 59 -155 33 -68
84 -181 114 -253 54 -128 137 -370 137 -399 0 -13 -54 -16 -429 -18 -416 -3
-430 -4 -457 -24 -47 -35 -67 -70 -72 -126 -4 -59 17 -102 71 -142 28 -21 39
-21 559 -24 521 -2 531 -2 574 18 54 27 84 73 91 144 10 94 -29 294 -93 483
-52 152 -228 544 -267 594 -45 59 -143 76 -210 37z"/>
<path d="M1246 1790 c-66 -33 -87 -76 -191 -384 -107 -319 -147 -501 -149
-676 -1 -106 17 -156 68 -194 l27 -21 3262 0 c3215 0 3262 0 3288 19 42 33 62
67 67 115 6 61 -16 111 -64 147 l-37 29 -3142 3 -3142 2 8 48 c30 161 129 481
205 664 38 90 30 178 -19 221 -55 49 -120 58 -181 27z"/>
<path d="M9502 1793 c-47 -23 -84 -75 -89 -128 -5 -40 2 -61 70 -202 109 -229
237 -563 237 -620 0 -10 -39 -13 -175 -13 -195 0 -223 -6 -268 -59 -64 -77
-51 -180 31 -236 l37 -25 298 0 c329 0 334 1 382 64 89 117 -7 519 -240 1003
-42 87 -86 168 -98 182 -46 50 -124 64 -185 34z"/>
</g>
</svg>
